<svg xmlns="http://www.w3.org/2000/svg" width="38" height="37" viewBox="0 0 38 37" fill="none"><rect x="30.7124" y="25.8369" width="3.84616" height="26.9231" rx="1.92308" transform="rotate(135 30.7124 25.8369)" fill="white"></rect><rect x="30.7124" y="25.8369" width="3.84616" height="26.9231" rx="1.92308" transform="rotate(135 30.7124 25.8369)" fill="white"></rect><rect x="30.7124" y="25.8369" width="3.84616" height="26.9231" rx="1.92308" transform="rotate(135 30.7124 25.8369)" fill="white"></rect><rect x="30.7124" y="25.8369" width="3.84616" height="26.9231" rx="1.92308" transform="rotate(135 30.7124 25.8369)" fill="white"></rect><rect x="26.6328" y="8.15869" width="3.84615" height="25" rx="1.92308" transform="rotate(45 26.6328 8.15869)" fill="white"></rect><rect x="26.6328" y="8.15869" width="3.84615" height="25" rx="1.92308" transform="rotate(45 26.6328 8.15869)" fill="white"></rect><rect x="26.6328" y="8.15869" width="3.84615" height="25" rx="1.92308" transform="rotate(45 26.6328 8.15869)" fill="white"></rect><rect x="26.6328" y="8.15869" width="3.84615" height="25" rx="1.92308" transform="rotate(45 26.6328 8.15869)" fill="white"></rect></svg>