<svg xmlns="http://www.w3.org/2000/svg" width="33" height="32" viewBox="0 0 33 32" fill="none"><rect x="0.5" y="0.5" width="31.8259" height="30.6939" rx="15.347" stroke="#5B2F15"></rect><path d="M26.5337 17.7203C26.277 14.7094 25.2375 11.9854 23.6546 9.48271C23.5797 9.36526 23.4706 9.25006 23.353 9.1936C22.1423 8.61085 20.8802 8.20428 19.5733 7.93549C19.3401 7.88806 19.2182 7.98066 19.1262 8.19298C19.0064 8.47081 18.8695 8.74411 18.7284 9.04C17.1947 8.80284 15.6717 8.81413 14.138 9.03323C13.9925 8.72604 13.8599 8.47984 13.7572 8.22235C13.6481 7.94452 13.4749 7.89032 13.2118 7.94904C11.9733 8.21557 10.7668 8.59278 9.61603 9.14842C9.44277 9.23199 9.27378 9.38785 9.16897 9.55499C8.42672 10.734 7.81709 11.9876 7.32939 13.309C6.39463 15.85 6.10586 18.4882 6.26843 21.1942C6.28554 21.4901 6.38607 21.6979 6.62778 21.8515C6.95506 22.0593 7.26309 22.3009 7.58822 22.5133C8.73047 23.2609 9.9433 23.8414 11.2203 24.2818C11.3551 24.327 11.4834 24.397 11.5968 24.2344C11.9797 23.681 12.3198 23.1028 12.6086 22.4613C12.0353 22.1654 11.4963 21.8853 10.9487 21.6007C11.1369 21.2755 11.3315 21.271 11.5946 21.3907C13.4513 22.2332 15.3872 22.6014 17.4086 22.4252C18.754 22.3055 20.0396 21.9554 21.2781 21.3907C21.6139 21.2371 21.6161 21.2439 21.9091 21.6053C21.3572 21.8899 20.8139 22.1699 20.2171 22.4771C20.5508 23.0486 20.8695 23.5794 21.1776 24.117C21.2952 24.3225 21.43 24.3586 21.6546 24.2818C23.2867 23.7104 24.8032 22.9063 26.215 21.8718C26.4717 21.6843 26.6065 21.472 26.6 21.1445C26.5787 20.0016 26.63 18.8541 26.5337 17.7203ZM14.1465 18.6441C13.5091 19.2268 12.6235 19.2246 11.9818 18.6509C11.0321 17.8038 11.0192 16.1188 11.954 15.256C12.7305 14.54 13.8856 14.7139 14.4888 15.6332C14.7283 16.0014 14.8503 16.4328 14.8503 16.9275C14.8481 17.6051 14.6406 18.1923 14.1465 18.6441ZM21.0834 18.4747C20.3519 19.3194 19.1604 19.2743 18.4866 18.3663C18.1765 17.9507 18.0225 17.4763 18.0353 16.9907C18.0289 16.3402 18.2086 15.8094 18.6086 15.3712C19.3038 14.61 20.4096 14.6303 21.0856 15.4119C21.8043 16.2431 21.8022 17.6457 21.0834 18.4747Z" fill="#93481D"></path></svg>