<svg xmlns="http://www.w3.org/2000/svg" width="33" height="32" viewBox="0 0 33 32" fill="none"><rect x="0.5" y="0.5" width="31.8259" height="30.6939" rx="15.347" stroke="#5B2F15"></rect><path d="M25.6021 9.82325C25.6021 9.93464 25.6021 10.046 25.6021 10.1574C25.008 10.7742 24.4119 11.3848 23.8281 12.0119C23.758 12.0882 23.76 12.2408 23.7497 12.3584C23.6899 12.9958 23.6961 13.6435 23.5744 14.2686C22.0995 21.8204 14.8323 25.0508 8.55313 22.4558C7.93429 22.2 7.37734 21.7916 6.7915 21.4553C6.7915 21.3708 6.7915 21.2882 6.7915 21.2037C6.95859 21.1686 7.1298 21.0923 7.29482 21.1026C8.73053 21.2037 10.094 20.9603 11.3688 20.2775C11.4926 20.2115 11.6081 20.1331 11.7876 20.0258C10.4076 19.6215 9.46901 18.8397 8.95743 17.5814C8.75941 17.0925 8.82129 16.9811 9.35761 16.8883C9.26479 16.8182 9.18846 16.7625 9.1142 16.7047C8.19833 15.9745 7.662 15.0297 7.54855 13.8622C7.47841 13.132 7.57949 13.068 8.25608 13.3279C8.30353 13.3465 8.35922 13.3465 8.45411 13.3609C8.37366 13.2434 8.31797 13.167 8.26846 13.0886C7.44747 11.8077 7.32577 10.4689 7.95285 9.07652C8.2107 8.50307 8.38398 8.48656 8.7986 8.96719C10.3086 10.7082 12.1981 11.8097 14.4383 12.3172C14.8364 12.4079 15.2448 12.4471 15.6553 12.5111C15.6677 12.4059 15.6759 12.3646 15.6739 12.3254C15.5955 10.5514 16.3113 9.18791 17.8914 8.39168C19.455 7.60369 20.9608 7.8306 22.3408 8.91769C22.4563 9.00845 22.6832 9.05796 22.8194 9.01051C23.3825 8.81455 23.925 8.56701 24.482 8.35661C24.6346 8.29885 24.812 8.31123 24.9791 8.2906C24.9874 8.468 25.0534 8.67222 24.9915 8.82074C24.8224 9.21679 24.5975 9.59016 24.3685 10.0233C24.5748 9.94908 24.7357 9.85832 24.909 9.83563C25.1338 9.7985 25.369 9.82119 25.6021 9.82325Z" fill="#93481D"></path></svg>