<svg xmlns="http://www.w3.org/2000/svg" width="33" height="32" viewBox="0 0 33 32" fill="none"><rect x="0.5" y="0.5" width="31.8259" height="30.6939" rx="15.347" stroke="#5B2F15"></rect><path d="M7.35742 18.6752C7.35742 16.7342 7.35742 14.7951 7.35742 12.854C7.40899 12.2888 7.44818 11.7216 7.51419 11.1564C7.76173 9.03376 9.22837 7.43303 11.3345 7.03079C12.0193 6.89877 12.7227 6.86783 13.42 6.7915C15.3858 6.7915 17.3537 6.7915 19.3216 6.7915C19.8476 6.84307 20.3757 6.88433 20.8996 6.94415C23.0697 7.19169 24.6684 8.65627 25.0727 10.8057C25.1985 11.4782 25.2294 12.1692 25.3037 12.852C25.3037 14.8199 25.3037 16.7878 25.3037 18.7536C25.2769 19.0692 25.2397 19.3828 25.2274 19.6984C25.118 22.4192 23.4637 24.2489 20.7821 24.5934C20.2457 24.6615 19.7032 24.6883 19.1628 24.7357C17.2485 24.7357 15.3342 24.7357 13.42 24.7357C12.8548 24.6841 12.2854 24.645 11.7223 24.5789C9.72138 24.35 8.14747 23.0195 7.67097 21.066C7.48119 20.2925 7.45644 19.4735 7.35742 18.6752ZM16.2996 20.3667C18.8719 20.3708 20.9285 18.339 20.9306 15.7915C20.9326 13.1965 18.907 11.1646 16.3141 11.1626C13.7789 11.1605 11.7367 13.1965 11.7243 15.7399C11.7099 18.3039 13.7459 20.3626 16.2996 20.3667ZM22.1951 10.9666C22.1909 10.3519 21.7227 9.88981 21.108 9.896C20.516 9.90013 20.0498 10.3663 20.0436 10.9542C20.0374 11.5565 20.5201 12.0516 21.1142 12.0537C21.7144 12.0537 22.1971 11.5689 22.1951 10.9666Z" fill="#93481D"></path><path d="M13.3374 15.7563C13.3292 14.1309 14.6886 12.7735 16.3305 12.7715C17.9581 12.7694 19.3175 14.1329 19.3216 15.7687C19.3237 17.3736 17.9684 18.7412 16.3594 18.7556C14.7051 18.7701 13.3457 17.4231 13.3374 15.7563Z" fill="#93481D"></path></svg>